<svg xmlns="http://www.w3.org/2000/svg" xmlns:xlink="http://www.w3.org/1999/xlink" width="31" height="14" viewBox="0 0 31 14">
    <defs>
        <path id="7w4ce3rqia" d="M0.511 0L4.028 0 4.028 10.427 0.511 10.427z"/>
        <path id="njjelbingc" d="M0 0.21L7.955 0.21 7.955 10.519 0 10.519z"/>
        <path id="rv9v4hahge" d="M0.8 0.2L8.659 0.2 8.659 11 0.8 11z"/>
    </defs>
    <g fill="none" fill-rule="evenodd">
        <g>
            <g>
                <g transform="translate(-450 -4668) translate(450 4668) translate(8)">
                    <mask id="0rty3kum6b" fill="#fff">
                        <use xlink:href="#7w4ce3rqia"/>
                    </mask>
                    <path fill="#000" d="M1.656 10.427V4.15C1.656 2.7.511 2.51.511 2.51V0s3.324.202 3.517 4.23v6.197H1.656z" mask="url(#0rty3kum6b)"/>
                </g>
                <path fill="#000" d="M16.006 7.045c0 .454.157.842.472 1.16.313.32.69.482 1.133.482.449 0 .833-.161 1.153-.481.32-.32.479-.707.479-1.161 0-.455-.16-.843-.48-1.162-.32-.32-.703-.481-1.152-.481-.442 0-.82.16-1.133.48-.315.32-.472.708-.472 1.163m-2.411.015c0-.504.1-.982.303-1.432.2-.45.498-.86.89-1.23.38-.352.815-.622 1.299-.81.483-.188.993-.281 1.526-.281.544 0 1.06.093 1.55.28.489.189.922.459 1.299.81.382.358.672.763.87 1.217.199.455.3.936.3 1.446 0 .508-.101.99-.3 1.444-.198.454-.488.859-.87 1.216-.377.352-.81.622-1.3.81-.488.188-1.005.282-1.55.282-.532 0-1.042-.094-1.525-.282-.484-.188-.918-.458-1.3-.81-.391-.371-.69-.78-.89-1.231-.202-.45-.302-.925-.302-1.43" transform="translate(-450 -4668) translate(450 4668)"/>
                <g transform="translate(-450 -4668) translate(450 4668)">
                    <mask id="f98h6zwfqd" fill="#fff">
                        <use xlink:href="#njjelbingc"/>
                    </mask>
                    <path fill="#000" d="M5.057 8.222c-.32.319-.703.479-1.152.479-.442 0-.82-.16-1.133-.48-.315-.32-.472-.707-.472-1.161 0-.455.157-.843.472-1.162.313-.321.69-.481 1.133-.481.449 0 .832.16 1.152.48.32.32.48.708.48 1.163 0 .454-.16.842-.48 1.162M7.049 4.44c-.525-.607-1.402-1.134-2.244-1.107-.986.034-1.82.215-2.45.752h-.03V.21H0v10.142h2.326V9.86h.029c.5.38 1.178.659 2.104.659 1.025 0 1.966-.292 2.579-.984.614-.691.917-1.345.917-2.488 0-1.052-.381-2-.906-2.606" mask="url(#f98h6zwfqd)"/>
                </g>
                <g transform="translate(-450 -4668) translate(450 4668) translate(22 3)">
                    <mask id="5r9nvecxef" fill="#fff">
                        <use xlink:href="#rv9v4hahge"/>
                    </mask>
                    <path fill="#000" d="M5.903 5.222c-.32.319-.704.479-1.152.479-.442 0-.82-.16-1.134-.48-.315-.32-.472-.707-.472-1.161 0-.455.157-.843.472-1.162.313-.321.692-.481 1.134-.481.448 0 .832.16 1.152.48.32.32.48.708.48 1.163 0 .454-.16.842-.48 1.162zM6.348.378v.554h-.03C5.756.42 5.182.2 4.27.2 3.252.2 2.361.538 1.737 1.267 1.113 1.993.8 2.976.8 4.213c0 1.104.281 1.984.842 2.639.561.657 1.388 1.01 2.343 1.01 1.028 0 1.804-.267 2.333-.998h.03v.472C6.35 8.562 5.05 9.184 4.103 9.089v1.84c1.133.164 2.48.1 3.423-.797C8.321 9.377 8.66 8.29 8.66 6.51V.378H6.35z" mask="url(#5r9nvecxef)"/>
                </g>
            </g>
        </g>
    </g>
</svg>
