<svg xmlns="http://www.w3.org/2000/svg" xmlns:xlink="http://www.w3.org/1999/xlink" width="54" height="12" viewBox="0 0 54 12">
    <defs>
        <path id="5y12j7vyva" d="M0.265 0.481L4.753 0.481 4.753 8.254 0.265 8.254z"/>
        <path id="mhew6bzujc" d="M0 0L17.143 0 17.143 12 0 12z"/>
    </defs>
    <g fill="none" fill-rule="evenodd">
        <g>
            <g>
                <path fill="#000" d="M26.783 9.74c.094-.245.141-.646.141-1.201V6.198c0-.54-.047-.934-.14-1.184-.095-.25-.26-.374-.498-.374-.229 0-.39.125-.484.374-.094.25-.14.644-.14 1.184v2.34c0 .556.044.957.134 1.202.09.246.253.368.49.368s.403-.122.497-.368m-1.9 1.177c-.339-.23-.58-.584-.724-1.066-.143-.483-.214-1.124-.214-1.925V6.835c0-.81.082-1.46.245-1.95.163-.49.42-.847.766-1.072.348-.225.803-.337 1.367-.337.556 0 1.002.114 1.336.343.335.229.581.587.736 1.073.155.486.233 1.134.233 1.943v1.09c0 .802-.075 1.445-.227 1.932-.15.486-.396.84-.735 1.066-.34.225-.8.338-1.38.338-.596 0-1.064-.115-1.403-.344" transform="translate(-618 -4669) translate(618 4669)"/>
                <g transform="translate(-618 -4669) translate(618 4669) translate(49 3)">
                    <mask id="1d9wrzewjb" fill="#fff">
                        <use xlink:href="#5y12j7vyva"/>
                    </mask>
                    <path fill="#000" d="M2.135 1.78c-.085.107-.143.28-.17.522-.03.24-.044.606-.044 1.097v.54H3.16v-.54c0-.482-.017-.848-.049-1.097-.033-.25-.092-.425-.178-.527-.086-.102-.219-.154-.399-.154-.179 0-.312.054-.398.16zm-.214 3.164v.38c0 .482.014.844.043 1.085.028.24.087.416.177.527.09.11.23.165.417.165.253 0 .427-.098.521-.294.094-.196.145-.523.153-.981l1.46.086c.007.066.011.156.011.27 0 .695-.19 1.214-.569 1.557-.38.343-.918.515-1.613.515-.833 0-1.418-.262-1.753-.785C.433 6.946.265 6.137.265 5.042V3.73c0-1.128.174-1.951.522-2.47.347-.52.942-.78 1.784-.78.58 0 1.025.108 1.335.32.311.212.53.544.657.993.126.449.19 1.07.19 1.863v1.288H1.921z" mask="url(#1d9wrzewjb)"/>
                </g>
                <path fill="#000" d="M20.763 7.803L18.84.852h1.68l.673 3.15c.172.777.3 1.439.38 1.987h.05c.057-.393.183-1.05.38-1.974L22.7.852h1.68l-1.95 6.95v3.336h-1.667V7.803zM34.09 3.623v7.515h-1.324l-.147-.92h-.037c-.36.695-.899 1.043-1.618 1.043-.499 0-.866-.164-1.103-.491-.237-.327-.356-.837-.356-1.532V3.623h1.692V9.14c0 .335.037.574.11.717.074.143.197.214.368.214.147 0 .288-.045.423-.135.135-.09.235-.204.301-.343v-5.97h1.691zM42.768 3.623v7.515h-1.324l-.147-.92h-.037c-.36.695-.899 1.043-1.618 1.043-.499 0-.866-.164-1.103-.491-.237-.327-.356-.837-.356-1.532V3.623h1.692V9.14c0 .335.037.574.11.717.074.143.197.214.368.214.147 0 .288-.045.423-.135.135-.09.235-.204.301-.343v-5.97h1.691z" transform="translate(-618 -4669) translate(618 4669)"/>
                <path fill="#000" d="M38.687 2.213L37.008 2.213 37.008 11.138 35.353 11.138 35.353 2.213 33.673 2.213 33.673.852 38.687.852zM46.817 7.89c0 .547-.023.976-.068 1.286-.045.311-.12.532-.226.662-.107.131-.25.197-.43.197-.14 0-.267-.033-.386-.099-.118-.065-.214-.163-.288-.294V5.376c.057-.204.155-.372.294-.503.139-.13.29-.196.454-.196.17 0 .304.067.399.202.093.135.159.362.195.681.037.32.056.772.056 1.361v.968zm1.55-3.066c-.102-.474-.267-.817-.496-1.03-.23-.213-.544-.319-.944-.319-.311 0-.601.088-.87.264-.27.175-.478.406-.626.692h-.012V.472h-1.63v10.665h1.397l.172-.71h.037c.13.253.326.453.588.6.262.147.552.22.87.22.572 0 .993-.263 1.263-.79.27-.527.405-1.35.405-2.47V6.798c0-.842-.051-1.5-.153-1.974z" transform="translate(-618 -4669) translate(618 4669)"/>
                <g transform="translate(-618 -4669) translate(618 4669)">
                    <mask id="6diatp7k1d" fill="#fff">
                        <use xlink:href="#mhew6bzujc"/>
                    </mask>
                    <path fill="#000" d="M16.785 1.874c-.197-.738-.778-1.319-1.516-1.516C13.932 0 8.572 0 8.572 0S3.21 0 1.874.358C1.137.555.556 1.136.359 1.874-.001 3.211-.001 6-.001 6s0 2.789.36 4.126c.197.738.778 1.319 1.515 1.516C3.21 12 8.572 12 8.572 12s5.36 0 6.697-.358c.738-.197 1.319-.778 1.516-1.516.358-1.337.358-4.126.358-4.126s0-2.789-.358-4.126" mask="url(#6diatp7k1d)"/>
                </g>
                <path fill="#FFF" d="M6.857 8.571L6.857 3.428 11.311 6z" transform="translate(-618 -4669) translate(618 4669)"/>
            </g>
        </g>
    </g>
</svg>
